<?xml version="1.0" encoding="UTF-8"?>
<svg id="Layer_2" data-name="Layer 2" xmlns="http://www.w3.org/2000/svg" viewBox="0 0 1080 1080">
  <g id="Layer_1-2" data-name="Layer 1">
    <g>
      <circle cx="540" cy="540" r="540" style="fill: #252525;"/>
      <g>
        <path d="m427.23,449.82c47.78,0,86.65,19.75,112.77,50.97,25.48-31.22,64.98-50.97,112.77-50.97,87.28,0,146.53,66.26,146.53,150.35v190.49h-67.53v-193.04c0-53.52-36.31-82.18-79-82.18s-79,28.67-79,82.18v193.04h-67.53v-193.04c0-53.52-36.31-82.18-79-82.18s-79,28.67-79,82.18v193.04h-67.53v-190.49c0-84.1,58.61-150.35,146.53-150.35Z" style="fill: #f5f5f5;"/>
        <line x1="280.7" y1="368.84" x2="799.3" y2="368.84" style="fill: none; stroke: #f5f5f5; stroke-miterlimit: 10; stroke-width: 32px;"/>
      </g>
    </g>
  </g>
</svg>
