<?xml version="1.0" encoding="UTF-8"?>
<svg id="Layer_2" data-name="Layer 2" xmlns="http://www.w3.org/2000/svg" viewBox="0 0 574.25 163">
  <g id="Layer_1-2" data-name="Layer 1">
    <g>
      <path d="m50.38,45.9c16.41,0,29.77,6.79,38.74,17.51,8.75-10.72,22.32-17.51,38.74-17.51,29.98,0,50.34,22.76,50.34,51.65v65.44h-23.2v-66.31c0-18.38-12.48-28.23-27.14-28.23s-27.14,9.85-27.14,28.23v66.31h-23.2v-66.31c0-18.38-12.48-28.23-27.14-28.23s-27.14,9.85-27.14,28.23v66.31H.04v-65.44C.04,68.67,20.18,45.9,50.38,45.9Z" style="fill: #f5f5f5;"/>
      <path d="m192.12,103.25c0-35.02,25.39-59.97,60.84-59.97s61.28,24.95,61.28,59.97-25.83,59.75-61.28,59.75-60.84-25.39-60.84-59.75Zm60.84,38.08c22.54,0,38.74-15.98,38.74-38.08s-16.2-38.3-38.74-38.3-38.3,15.54-38.3,38.3,15.76,38.08,38.3,38.08Z" style="fill: #f5f5f5;"/>
      <path d="m369.53,142.2c12.04,0,17.07-6.35,17.07-13.13,0-9.41-9.41-13.13-19.7-17.29-26.26-9.85-35.89-19.92-35.89-36.33.22-17.95,16.2-32.17,38.74-32.17,24.51,0,38.74,15.32,38.96,36.55h-21.89c0-10.07-6.57-16.2-16.85-16.41-9.19,0-16.41,5.25-16.41,13.13,0,9.63,8.32,12.91,20.57,17.29,21.67,7,35.02,16.2,35.02,36.33,0,17.51-14.66,32.83-40.49,32.83-22.98,0-39.18-16.41-40.49-36.99h22.1c1.09,8.97,7.88,16.2,19.26,16.2Z" style="fill: #f5f5f5;"/>
      <circle cx="561.69" cy="57.86" r="12.01" style="fill: none; stroke: #fff; stroke-miterlimit: 10; stroke-width: 1.09px;"/>
      <path d="m561.09,59.97h-1.33v5.63h-2.26v-14.77h3.99c2.58,0,4.96,1.57,4.96,4.42,0,2.34-1.41,3.69-3.47,4.02l3.55,6.34h-2.46l-2.99-5.63Zm.42-2.3c1.82,0,2.66-1.11,2.66-2.4s-.85-2.4-2.66-2.4h-1.76v4.8h1.76Z" style="fill: #fff;"/>
      <line y1="7" x2="178.24" y2="7" style="fill: none; stroke: #f5f5f5; stroke-miterlimit: 10; stroke-width: 14px;"/>
      <path d="m544.18,157.85h-16.06l-.65-21.93c-9.12,14.83-26.05,24.22-46.02,24.22-34.08,0-59.48-23.81-59.26-57.01.22-33.83,25.18-57.01,61-57.01s60.35,21.72,61,55.75v55.96Zm-61-16.91c23.01,0,39.51-15.87,39.51-37.59s-16.5-37.59-39.51-37.59-39.51,15.04-39.51,37.59,16.5,37.59,39.51,37.59Z" style="fill: #f5f5f5;"/>
    </g>
  </g>
</svg>